<?xml version="1.0" standalone="no"?>
<!DOCTYPE svg PUBLIC "-//W3C//DTD SVG 20010904//EN"
 "http://www.w3.org/TR/2001/REC-SVG-20010904/DTD/svg10.dtd">
<svg version="1.0" xmlns="http://www.w3.org/2000/svg"
 width="1080.000000pt" height="1080.000000pt" viewBox="0 0 1080.000000 1080.000000"
 preserveAspectRatio="xMidYMid meet">
<metadata>
Created by potrace 1.11, written by Peter Selinger 2001-2013
</metadata>
<g transform="translate(0.000000,1080.000000) scale(0.100000,-0.100000)"
fill="#000000" stroke="none">
<path d="M3090 10059 c-25 -4 -63 -9 -85 -12 -197 -29 -413 -146 -582 -315
-51 -50 -93 -96 -93 -101 0 -5 -6 -16 -14 -23 -51 -51 -163 -300 -180 -398 -3
-19 -9 -46 -13 -60 -4 -14 -9 -1073 -9 -2355 -2 -2242 -1 -2333 17 -2420 23
-113 42 -171 85 -262 86 -181 245 -361 409 -460 48 -30 204 -103 218 -103 9 0
18 -4 21 -9 5 -8 80 -26 88 -21 2 1 16 -3 31 -9 16 -6 58 -14 95 -18 37 -3
1093 -6 2347 -6 2107 0 2286 1 2365 17 47 10 108 24 135 33 67 21 245 104 245
115 0 4 5 8 10 8 29 0 193 142 260 226 77 95 110 151 175 299 14 32 43 129 51
167 2 13 6 34 10 48 15 67 15 259 0 345 -19 115 -20 117 -46 195 -54 156 -143
297 -264 415 -91 90 -107 103 -180 149 -119 77 -262 133 -405 160 -62 11 -363
14 -1769 14 -931 0 -1697 3 -1700 7 -4 4 -7 497 -8 1096 l0 1089 20 1 c12 0
782 1 1711 3 930 1 1704 5 1720 9 178 34 305 83 433 164 15 10 29 20 32 23 3
3 21 16 40 29 59 40 192 182 244 261 80 121 128 236 167 400 15 62 18 306 6
390 -32 204 -149 430 -303 586 -161 163 -337 258 -573 311 -70 15 -252 17
-2371 18 -1262 0 -2315 -2 -2340 -6z"/>
<path d="M3108 2935 c-2 -2 -28 -6 -58 -9 -67 -8 -176 -38 -258 -71 -352 -143
-600 -455 -669 -840 -12 -70 -11 -283 3 -355 32 -173 79 -290 171 -428 194
-292 525 -476 875 -486 309 -9 586 101 803 319 102 102 106 106 161 195 134
216 187 448 160 702 -4 37 -7 69 -7 70 3 8 -43 161 -61 208 -71 181 -197 349
-343 461 -16 13 -32 26 -35 29 -12 12 -70 48 -127 78 -154 81 -314 122 -490
127 -67 1 -123 2 -125 0z"/>
</g>
</svg>
