{"accessors" : [{"bufferView" : 0, "byteOffset" : 0, "componentType" : 5123, "count" : 132, "type" : "SCALAR", "max" : [131], "min" : [0]}, {"bufferView" : 1, "byteOffset" : 0, "componentType" : 5126, "count" : 132, "type" : "VEC3", "max" : [3262.1103515625, 3266.1103515625, 3270.1103515625], "min" : [118.11023712158203, 122.11023712158203, 126.11023712158203]}, {"bufferView" : 1, "byteOffset" : 12, "componentType" : 5126, "count" : 132, "type" : "VEC3", "max" : [3274.1103515625, 3278.1103515625, 3282.1103515625], "min" : [130.1102294921875, 134.1102294921875, 138.1102294921875]}, {"bufferView" : 0, "byteOffset" : 264, "componentType" : 5123, "count" : 60, "type" : "SCALAR", "max" : [59], "min" : [0]}, {"bufferView" : 2, "byteOffset" : 0, "componentType" : 5126, "count" : 60, "type" : "VEC3", "max" : [1534.1102294921875, 1538.1102294921875, 1542.1102294921875], "min" : [118.11023712158203, 122.11023712158203, 126.11023712158203]}, {"bufferView" : 2, "byteOffset" : 12, "componentType" : 5126, "count" : 60, "type" : "VEC3", "max" : [1546.1102294921875, 1550.1102294921875, 1554.1102294921875], "min" : [130.1102294921875, 134.1102294921875, 138.1102294921875]}, {"bufferView" : 0, "byteOffset" : 384, "componentType" : 5123, "count" : 108, "type" : "SCALAR", "max" : [107], "min" : [0]}, {"bufferView" : 3, "byteOffset" : 0, "componentType" : 5126, "count" : 108, "type" : "VEC3", "max" : [2725.480224609375, 2729.480224609375, 2733.480224609375], "min" : [157.48031616210938, 161.48031616210938, 165.48031616210938]}, {"bufferView" : 3, "byteOffset" : 12, "componentType" : 5126, "count" : 108, "type" : "VEC3", "max" : [2737.480224609375, 2741.480224609375, 2745.480224609375], "min" : [169.48031616210938, 173.48031616210938, 177.48031616210938]}], "asset" : {"generator" : "Aspose.3D 20.8", "version" : "2.0"}, "buffers" : [{"uri" : "buffer.bin", "byteLength" : 7816}], "bufferViews" : [{"buffer" : 0, "byteOffset" : 0, "byteLength" : 600, "target" : 34963}, {"buffer" : 0, "byteOffset" : 604, "byteLength" : 3168, "byteStride" : 24, "target" : 34962}, {"buffer" : 0, "byteOffset" : 3776, "byteLength" : 1440, "byteStride" : 24, "target" : 34962}, {"buffer" : 0, "byteOffset" : 5220, "byteLength" : 2592, "byteStride" : 24, "target" : 34962}], "cameras" : [{"perspective" : {"aspectRatio" : 0, "yfov" : 0.6108652381980153, "zfar" : 1000, "znear" : 1}, "type" : "perspective"}], "materials" : [{"pbrMetallicRoughness" : {"baseColorFactor" : [1, 1, 1, 1], "metallicFactor" : 0, "roughnessFactor" : 0}, "emissiveFactor" : [0, 0, 0], "alphaMode" : "OPAQUE", "doubleSided" : false}, {"pbrMetallicRoughness" : {"baseColorFactor" : [1, 1, 1, 1], "metallicFactor" : 0, "roughnessFactor" : 0}, "emissiveFactor" : [0, 0, 0], "alphaMode" : "OPAQUE", "doubleSided" : false}, {"pbrMetallicRoughness" : {"baseColorFactor" : [1, 1, 1, 1], "metallicFactor" : 0, "roughnessFactor" : 0}, "emissiveFactor" : [0, 0, 0], "alphaMode" : "OPAQUE", "doubleSided" : false}], "meshes" : [{"primitives" : [{"attributes" : {"POSITION" : 1, "NORMAL" : 2}, "indices" : 0, "material" : 0, "mode" : 4}]}, {"primitives" : [{"attributes" : {"POSITION" : 4, "NORMAL" : 5}, "indices" : 3, "material" : 1, "mode" : 4}]}, {"primitives" : [{"attributes" : {"POSITION" : 7, "NORMAL" : 8}, "indices" : 6, "material" : 2, "mode" : 4}]}], "nodes" : [{"camera" : 0, "matrix" : [0.5928521, 0.8053114, 0, 0, -0.3024492, 0.2226563, 0.9267948, 0, 0.7463584, -0.5494522, 0.3755681, 0, 583.5473633, -457.6887817, 278.163147, 1], "name" : "skp_camera_Last_Saved_SketchUp_View"}, {"matrix" : [1, 0, 0, 0, 0, 1, 0, 0, 0, 0, 1, 0, -59.0551181, -19.6850394, -118.1102362, 1], "mesh" : 0, "name" : "group_0"}, {"matrix" : [1, 0, 0, 0, 0, 1, 0, 0, 0, 0, 1, 0, -19.6850394, 59.0551181, -78.7401575, 1], "mesh" : 1, "name" : "group_1"}, {"matrix" : [1, 0, 0, 0, 0, 1, 0, 0, 0, 0, 1, 0, -98.4251969, -98.4251969, -118.1102362, 1], "mesh" : 2, "name" : "group_2"}, {"children" : [0, 1, 2, 3], "name" : "SketchUp"}], "scene" : 0, "scenes" : [{"nodes" : [4]}]}